<?xml version="1.0" encoding="utf-8"?>
<!-- Generator: Adobe Illustrator 23.0.1, SVG Export Plug-In . SVG Version: 6.00 Build 0)  -->
<svg version="1.1" xmlns="http://www.w3.org/2000/svg" xmlns:xlink="http://www.w3.org/1999/xlink" x="0px" y="0px"
	 viewBox="0 0 144 144" style="enable-background:new 0 0 144 144;" xml:space="preserve">
<style type="text/css">
	.st0{fill:#FFFFFF;stroke:#B4DBFF;stroke-width:4;stroke-miterlimit:10;}
	.st1{fill:#B4DBFF;}
	.st2{fill:#455BA9;}
	.st3{fill:#4964A7;}
	.st4{fill:#FFFFFF;}
</style>
<g id="Layer_2">
	<polygon class="st0" points="18.2,136.5 37.9,60.6 46.4,85.8 67.3,7.5 96.1,79 103,57.2 127.7,136.5 	"/>
	<polygon class="st1" points="37.8,76.7 43.6,96.3 25.8,131 	"/>
	<polygon class="st1" points="68.2,24.3 64.1,43.1 89.6,79 	"/>
	<polygon class="st1" points="103.4,72 98.5,88.8 108.3,120.4 	"/>
</g>
<g id="Layer_1">
	<path class="st2" d="M71.4,52.5C71.4,52.5,71.4,52.5,71.4,52.5C71.4,52.5,71.4,52.5,71.4,52.5C71.4,52.5,71.4,52.5,71.4,52.5z"/>
	<g>
		<path class="st3" d="M80.5,85.9c-1.1-0.9-1.9-1.8-2.3-2.6l-8.5-0.4v-4c-1.7-0.7-2.8-2.4-2.8-4.3c0-2.6,2.1-4.7,4.7-4.7
			s4.7,2.1,4.7,4.7c0,1-0.3,2-0.9,2.8c1.1,0.4,2.9,0.8,3.8,0.9l4.4-2.6l-7.3-7.3c-1.8-2.4-12.7-4.8-15.1,2.4
			c-2.4,7.3-2.4,12.1-2.4,12.1s-7.9,37.5-2.4,44.2s21.1,3.8,25.4,1.8c2.2-1,6.4-3.4,7.3-7.9C91.3,109.2,86,90.2,80.5,85.9z"/>
		<path class="st4" d="M77.5,79.3l1.7-1c-0.9-0.1-2.7-0.5-3.8-0.9c0.6-0.8,0.9-1.7,0.9-2.8c0-2.6-2.1-4.7-4.7-4.7
			c-2.6,0-4.7,2.1-4.7,4.7c0,1.9,1.2,3.6,2.8,4.3v4l8.5,0.4C76.9,81.1,77.5,79.3,77.5,79.3z M71.5,73.5c0-0.6,0.4-1.2,1-1.4
			c0.7-0.3,1.5,0,1.8,0.7c0.5,0.2,0.8,0.4,0.8,0.8s-0.3,0.6-0.8,0.8c-0.2,0.3-0.4,0.5-0.8,0.7c-0.8,0.3-1.7-0.1-2-0.9
			C71.5,73.9,71.5,73.7,71.5,73.5C71.5,73.6,71.5,73.6,71.5,73.5C71.5,73.5,71.5,73.5,71.5,73.5z"/>
		<path class="st2" d="M74.3,72.8c-0.4-0.6-1.1-0.9-1.8-0.7c-0.6,0.2-1,0.8-1,1.4c0,0,0,0,0,0c0,0.2,0,0.3,0.1,0.5
			c0.3,0.8,1.2,1.2,2,0.9c0.3-0.1,0.6-0.4,0.8-0.7c0.5-0.2,0.8-0.4,0.8-0.8S74.8,73,74.3,72.8z"/>
	</g>
</g>
</svg>
