<?xml version="1.0" encoding="utf-8"?>
<!-- Generator: Adobe Illustrator 23.0.1, SVG Export Plug-In . SVG Version: 6.00 Build 0)  -->
<svg version="1.1" xmlns="http://www.w3.org/2000/svg" xmlns:xlink="http://www.w3.org/1999/xlink" x="0px" y="0px"
	 viewBox="0 0 3393.44 765.05" style="enable-background:new 0 0 3393.44 765.05;" xml:space="preserve">
<style type="text/css">
	.st0{fill:#FFFFFF;}
	.st1{fill:#B8DAF3;}
</style>
<g id="Layer_2">
</g>
<g id="Layer_1">
	<polygon class="st0" points="3236.7,443.08 3025.95,349.25 3098.93,125.1 2760.1,187.66 2635,401.37 2593.3,252.81 2481.23,345.62 
		2202.35,427.44 2051.18,250.21 1967.78,390.95 1790.55,125.1 1639.38,453.5 1483,255.42 1368.32,372.35 1107.69,394.34 
		920.03,453.5 800.14,357.07 728.7,463.22 622.91,458.71 539.51,375.31 503.02,432.65 357.07,229.36 224.91,419.13 -492.6,344.04 
		-281.48,1079.02 420.66,1128.54 2971.22,1058.17 3393.44,1128.54 3719.23,708.92 	"/>
	<polygon class="st1" points="355.46,271.47 367.84,517.2 485.87,448.94 	"/>
	<polygon class="st1" points="542.06,399.75 540.03,432.65 621.77,486.41 	"/>
	<polygon class="st1" points="118.59,605.97 164.2,568.18 319.28,635.94 	"/>
	<polygon class="st1" points="1481.7,291.91 1514.28,443.08 1481.7,585.12 1634.17,486.41 	"/>
	<polygon class="st1" points="1801.37,186.26 1846.19,434.51 1846.19,558.44 1971.29,439.08 	"/>
	<polygon class="st1" points="2056.39,304.94 2103.31,463.93 2185.41,463.93 	"/>
	<polygon class="st1" points="2810.93,291.91 2931.73,239.26 2954.27,345.62 2986.79,215.26 3053.32,186.26 2979.03,372.35 
		3223.38,475.66 2891.07,504.98 2861.75,336.87 2834.38,424.83 	"/>
	<polygon class="st1" points="933.07,568.18 933.07,635.94 964.34,568.18 948.7,529.08 	"/>
	<polygon class="st1" points="977.37,570.79 977.37,638.55 1008.65,570.79 993.01,531.69 	"/>
	<polygon class="st1" points="1002.79,574.04 1002.79,641.81 1014.51,574.04 1008.65,534.95 	"/>
	<polygon class="st1" points="799.49,383.78 848.36,473.7 838.59,534.95 897.23,475.66 	"/>
</g>
</svg>
